<svg width="24" height="24" viewBox="0 0 24 24" fill="none" xmlns="http://www.w3.org/2000/svg">
<path d="M11.11 23C10.9941 22.9999 10.879 22.9796 10.77 22.94C10.3373 22.7816 10.0689 22.348 10.12 21.89L10.89 14.8H5.00005C4.62983 14.8006 4.28961 14.5965 4.11571 14.2697C3.94182 13.9429 3.96273 13.5467 4.17005 13.24L12.06 1.44C12.3168 1.06007 12.799 0.903435 13.23 1.06C13.6435 1.21351 13.9076 1.6198 13.88 2.06L13.11 9.2H19C19.3703 9.19945 19.7105 9.40346 19.8844 9.7303C20.0583 10.0571 20.0374 10.4533 19.83 10.76L11.94 22.56C11.7538 22.8356 11.4427 23.0005 11.11 23V23Z" fill="white"/>
</svg>
