<svg width="24" height="24" viewBox="0 0 24 24" fill="none" xmlns="http://www.w3.org/2000/svg">
<path d="M17.4333 8.54844C18.5539 7.81195 19.2952 6.54395 19.2952 5.10621C19.2952 2.8366 17.4484 0.990234 15.1788 0.990234H8.11641C5.8468 0.990234 4 2.8366 4 5.10621C4 6.54395 4.74121 7.81195 5.86184 8.54844C4.74121 9.28449 4 10.5525 4 11.9902C4 13.428 4.74121 14.696 5.86184 15.4325C4.74121 16.1681 4 17.4365 4 18.8743C4 21.1439 5.85668 22.9902 8.13832 22.9902C10.4449 22.9902 12.3218 21.1237 12.3218 18.8296V15.0337C13.0531 15.7002 14.0246 16.1062 15.0894 16.1062H15.1788C17.4484 16.1062 19.2952 14.2598 19.2952 11.9902C19.2952 10.5525 18.5539 9.28449 17.4333 8.54844ZM12.3218 2.33859H15.1788C16.705 2.33859 17.9468 3.57996 17.9468 5.10621C17.9468 6.63246 16.705 7.87426 15.1788 7.87426H12.3218V2.33859ZM5.34836 5.10621C5.34836 3.57996 6.59016 2.33859 8.11641 2.33859H10.9734V7.87426H8.11641C6.59016 7.87426 5.34836 6.63246 5.34836 5.10621ZM5.34836 11.9902C5.34836 10.464 6.59016 9.22262 8.11641 9.22262H10.9734V14.7583H8.09879C6.5807 14.7488 5.34836 13.5105 5.34836 11.9902ZM10.9734 18.8296C10.9734 20.3803 9.70152 21.6419 8.13832 21.6419C6.60004 21.6419 5.34836 20.4005 5.34836 18.8743C5.34836 17.348 6.59016 16.1062 8.11641 16.1062H10.9734V18.8296ZM15.1788 14.7583H15.0894C13.5631 14.7583 12.3218 13.5165 12.3218 11.9902C12.3218 10.464 13.5631 9.22262 15.0894 9.22262H15.1788C16.705 9.22262 17.9468 10.464 17.9468 11.9902C17.9468 13.5165 16.705 14.7583 15.1788 14.7583Z" fill="#212B36"/>
</svg>
