<svg width="24" height="24" viewBox="0 0 24 24" fill="none" xmlns="http://www.w3.org/2000/svg">
<path fill-rule="evenodd" clip-rule="evenodd" d="M12.0406 2.29146C12.0793 2.28915 12.1186 2.29005 12.158 2.29433L17.826 2.90954C18.1327 2.94283 18.3769 3.17151 18.4365 3.46601L20.4641 6.19299L22.57 9.1463C22.7562 9.40737 22.7411 9.76155 22.5335 10.0059L12.5335 21.777C12.4005 21.9336 12.2055 22.0238 12 22.0238C11.7946 22.0238 11.5996 21.9336 11.4666 21.777L1.46657 10.0059C1.259 9.76159 1.24395 9.40748 1.43004 9.14641L3.53509 6.19318L3.54345 6.1817L5.74572 3.22103C5.85736 3.05133 6.04104 2.93279 6.25522 2.90954L11.9232 2.29433C11.9627 2.29005 12.0019 2.28915 12.0406 2.29146ZM3.51323 10.2527L8.71223 16.3725L5.618 10.2527H3.51323ZM7.18677 10.2527L12 19.7724L16.813 10.2527H7.18677ZM18.3818 10.2527L15.2875 16.373L20.4869 10.2527H18.3818ZM10.242 3.88539L7.00683 4.23653L6.86914 7.60439L10.242 3.88539ZM5.52019 5.90908L3.37602 8.85265L5.37992 8.85254L5.52019 5.90908ZM16.3715 8.85272H7.62833L12 4.03244L16.3715 8.85272ZM16.9932 4.23652L13.8482 3.89515L17.1265 7.51L16.9932 4.23652ZM20.6241 8.85265L18.5667 6.02828L18.7013 8.85255L20.6241 8.85265Z" fill="#212B36"/>
</svg>
