<svg width="24" height="24" viewBox="0 0 24 24" fill="none" xmlns="http://www.w3.org/2000/svg">
<path d="M11.3248 1.49411L11.3248 1.4941C11.3159 1.49491 11.3011 1.49633 11.2819 1.49816C11.2152 1.50453 11.0959 1.51592 10.9885 1.52447C8.01199 1.79358 5.21737 3.4019 3.4475 5.87566L3.4473 5.87595C2.46109 7.25233 1.83169 8.81126 1.59381 10.4618L1.59369 10.4627C1.50998 11.0363 1.5 11.1895 1.5 11.9924C1.5 12.7953 1.50998 12.9485 1.59368 13.5221L1.59377 13.5227C2.16413 17.4633 4.97061 20.7777 8.77712 22.0053C9.45512 22.2238 10.1743 22.3744 11.0007 22.4658L11.3248 1.49411ZM11.3248 1.49411L11.3275 1.49385M11.3248 1.49411L11.3275 1.49385M11.3275 1.49385L11.3278 1.49383C11.3305 1.49368 11.3539 1.49239 11.4085 1.49146C11.4607 1.49058 11.5284 1.49018 11.6077 1.49024C11.766 1.49037 11.9642 1.49235 12.1643 1.49555C12.5768 1.50215 12.9532 1.51338 13.0326 1.52125C13.8413 1.61262 14.5555 1.76318 15.2222 1.97925L15.2229 1.97947C19.0294 3.20707 21.8359 6.52143 22.4062 10.4621L22.4063 10.4627C22.49 11.0363 22.5 11.1895 22.5 11.9924C22.5 12.7953 22.49 12.9485 22.4063 13.5221L22.4062 13.5226C22.1191 15.5037 21.2637 17.3629 19.9348 18.8888L19.9344 18.8892C19.3997 19.5048 18.7434 20.0997 18.1018 20.5597L16.6388 18.3439L16.6386 18.3437C15.6796 16.8924 13.727 13.936 12.2991 11.7709C11.5849 10.6879 10.9293 9.69677 10.448 8.97188C10.2074 8.60951 10.0102 8.31328 9.87087 8.10527C9.80131 8.0014 9.74571 7.91878 9.70623 7.86068C9.68662 7.83182 9.67014 7.80777 9.65758 7.78975C9.65144 7.78095 9.64502 7.77182 9.63905 7.76359C9.63615 7.7596 9.63198 7.7539 9.6272 7.74766L9.62697 7.74737C9.62497 7.74474 9.61322 7.7293 9.59704 7.71157L11.3275 1.49385ZM9.72711 11.9511C10.097 12.4954 10.5548 13.1707 11.0482 13.9002L13.2524 17.1619L13.2584 17.1709L13.2648 17.1795L15.0239 19.5555C15.0239 19.5555 15.024 19.5555 15.024 19.5555C15.5081 20.2095 15.952 20.8072 16.2771 21.2432C16.3502 21.3412 16.4174 21.4311 16.4777 21.5117C15.401 22.0192 14.2954 22.3224 12.9993 22.4658L9.72711 11.9511ZM9.72711 11.9511C9.72487 12.429 9.72295 12.9855 9.7215 13.5781C9.7215 13.5782 9.7215 13.5783 9.7215 13.5783L9.22151 13.5771L9.72711 11.9511ZM12 22.4902C12.451 22.4902 12.865 22.4805 12.9992 22.4658L12 22.4902ZM12 22.4902C11.5494 22.4902 11.1357 22.4805 11.0012 22.4658L12 22.4902ZM16.5172 11.8492V11.8491C16.5194 10.502 16.5194 9.52826 16.5167 8.88403C16.5153 8.56223 16.5133 8.32074 16.5105 8.15538C16.5091 8.07315 16.5074 8.00671 16.5054 7.9575C16.5045 7.93335 16.5032 7.90921 16.5016 7.88764C16.5007 7.87708 16.4995 7.86289 16.4975 7.84745L16.4974 7.84659C16.4963 7.83806 16.4919 7.80353 16.48 7.76265C16.4095 7.52106 16.2311 7.31686 16.0143 7.20574C15.9136 7.15213 15.8165 7.12614 15.7 7.11514C15.6088 7.10653 15.4889 7.10594 15.3376 7.10594C15.1795 7.10594 15.0553 7.10632 14.9606 7.11671C14.8236 7.13172 14.7344 7.16798 14.6517 7.21036L14.6516 7.21024L14.6415 7.21573C14.4145 7.33867 14.2555 7.54541 14.1859 7.78894L14.1858 7.7889L14.1829 7.80009C14.1729 7.83812 14.1695 7.8705 14.1687 7.87678C14.1672 7.8898 14.1663 7.90178 14.1656 7.91077C14.1643 7.92909 14.1633 7.94951 14.1624 7.96979C14.1608 8.01113 14.1593 8.06618 14.158 8.13289C14.1553 8.26706 14.153 8.45855 14.1511 8.70354C14.1473 9.19403 14.1452 9.90506 14.1452 10.8141V13.6244V13.7735L14.2268 13.8982L14.9103 14.9426L14.9107 14.9432L15.592 15.9876L16.508 17.3917L16.5108 15.7153L16.5172 11.8492Z" fill="#212B36" stroke="#212B36"/>
</svg>
