<svg width="24" height="24" viewBox="0 0 24 24" fill="none" xmlns="http://www.w3.org/2000/svg">
<path d="M11.73 6.69942H8.25844V19.0799H5.41369V6.69942H2V4.1947H11.73V6.69942Z" fill="#212B36"/>
<path d="M19.136 15.1746C19.136 14.568 18.9881 14.1113 18.6924 13.8046C18.4031 13.4911 17.8727 13.1674 17.1013 12.8334C15.6933 12.2677 14.6808 11.6066 14.0636 10.8501C13.4465 10.0868 13.1379 9.1871 13.1379 8.15113C13.1379 6.89707 13.5558 5.89178 14.3915 5.13525C15.2337 4.37191 16.3009 3.99023 17.5931 3.99023C18.4545 3.99023 19.2228 4.18448 19.8978 4.57296C20.5728 4.95464 21.0903 5.49647 21.4503 6.19848C21.8168 6.90048 22 7.6979 22 8.59074H19.1745C19.1745 7.89555 19.0331 7.36734 18.7502 7.00612C18.4738 6.63808 18.072 6.45406 17.5448 6.45406C17.0498 6.45406 16.6641 6.61082 16.3877 6.92433C16.1112 7.23103 15.973 7.64678 15.973 8.17158C15.973 8.58051 16.1273 8.95196 16.4359 9.28593C16.7445 9.61307 17.2909 9.95385 18.0752 10.3083C19.4446 10.8331 20.4378 11.4771 21.055 12.2405C21.6786 13.0038 21.9904 13.975 21.9904 15.1541C21.9904 16.4491 21.6014 17.4612 20.8235 18.1905C20.0456 18.9197 18.9881 19.2844 17.6509 19.2844C16.7445 19.2844 15.9184 19.0867 15.1726 18.6914C14.4269 18.2961 13.8419 17.7304 13.4176 16.9943C12.9997 16.2582 12.7907 15.3893 12.7907 14.3874H15.6355C15.6355 15.2461 15.793 15.8698 16.108 16.2582C16.423 16.6467 16.9373 16.841 17.6509 16.841C18.641 16.841 19.136 16.2855 19.136 15.1746Z" fill="#212B36"/>
</svg>
