<svg width="17" height="16" viewBox="0 0 17 16" fill="none" xmlns="http://www.w3.org/2000/svg">
<path d="M13.8333 7.33333C13.6565 7.33333 13.487 7.40357 13.3619 7.5286C13.2369 7.65362 13.1667 7.82319 13.1667 8V12C13.1667 12.1768 13.0964 12.3464 12.9714 12.4714C12.8464 12.5964 12.6768 12.6667 12.5 12.6667H4.5C4.32319 12.6667 4.15362 12.5964 4.0286 12.4714C3.90357 12.3464 3.83333 12.1768 3.83333 12V4C3.83333 3.82319 3.90357 3.65362 4.0286 3.5286C4.15362 3.40357 4.32319 3.33333 4.5 3.33333H8.5C8.67681 3.33333 8.84638 3.2631 8.9714 3.13807C9.09643 3.01305 9.16667 2.84348 9.16667 2.66667C9.16667 2.48986 9.09643 2.32029 8.9714 2.19526C8.84638 2.07024 8.67681 2 8.5 2H4.5C3.96957 2 3.46086 2.21071 3.08579 2.58579C2.71071 2.96086 2.5 3.46957 2.5 4V12C2.5 12.5304 2.71071 13.0391 3.08579 13.4142C3.46086 13.7893 3.96957 14 4.5 14H12.5C13.0304 14 13.5391 13.7893 13.9142 13.4142C14.2893 13.0391 14.5 12.5304 14.5 12V8C14.5 7.82319 14.4298 7.65362 14.3047 7.5286C14.1797 7.40357 14.0101 7.33333 13.8333 7.33333Z" fill="#212B36"/>
<path d="M11.1667 3.33333H12.22L8.02667 7.52C7.96418 7.58198 7.91459 7.65571 7.88074 7.73695C7.84689 7.81819 7.82947 7.90533 7.82947 7.99333C7.82947 8.08134 7.84689 8.16848 7.88074 8.24972C7.91459 8.33096 7.96418 8.40469 8.02667 8.46667C8.08864 8.52915 8.16238 8.57875 8.24362 8.61259C8.32486 8.64644 8.41199 8.66387 8.5 8.66387C8.58801 8.66387 8.67515 8.64644 8.75638 8.61259C8.83762 8.57875 8.91136 8.52915 8.97333 8.46667L13.1667 4.28V5.33333C13.1667 5.51014 13.2369 5.67971 13.3619 5.80474C13.487 5.92976 13.6565 6 13.8333 6C14.0101 6 14.1797 5.92976 14.3047 5.80474C14.4298 5.67971 14.5 5.51014 14.5 5.33333V2.66667C14.5 2.48986 14.4298 2.32029 14.3047 2.19526C14.1797 2.07024 14.0101 2 13.8333 2H11.1667C10.9899 2 10.8203 2.07024 10.6953 2.19526C10.5702 2.32029 10.5 2.48986 10.5 2.66667C10.5 2.84348 10.5702 3.01305 10.6953 3.13807C10.8203 3.2631 10.9899 3.33333 11.1667 3.33333Z" fill="#212B36"/>
</svg>
