<svg width="24" height="24" viewBox="0 0 24 24" fill="none" xmlns="http://www.w3.org/2000/svg">
<path d="M7.53598 4.1947H10.4952V14.4998C10.4952 15.9447 10.0993 17.1034 9.3075 17.9758C8.51569 18.8482 7.49572 19.2844 6.24761 19.2844C4.90555 19.2844 3.8621 18.8788 3.11726 18.0678C2.37242 17.2567 2 16.1287 2 14.6838H4.9693C4.9693 16.0879 5.3954 16.7899 6.24761 16.7899C7.10653 16.7899 7.53598 15.9788 7.53598 14.3567V4.1947Z" fill="#212B36"/>
<path d="M19.0106 15.1746C19.0106 14.568 18.8562 14.1113 18.5476 13.8046C18.2456 13.4911 17.692 13.1674 16.8868 12.8334C15.4172 12.2677 14.3603 11.6066 13.7162 10.8501C13.072 10.0868 12.7499 9.1871 12.7499 8.15113C12.7499 6.89707 13.186 5.89178 14.0584 5.13525C14.9374 4.37191 16.0513 3.99023 17.4001 3.99023C18.2993 3.99023 19.1012 4.18448 19.8057 4.57296C20.5103 4.95464 21.0505 5.49647 21.4263 6.19848C21.8088 6.90048 22 7.6979 22 8.59074H19.0508C19.0508 7.89555 18.9032 7.36734 18.608 7.00612C18.3194 6.63808 17.9 6.45406 17.3498 6.45406C16.8331 6.45406 16.4305 6.61082 16.1419 6.92433C15.8534 7.23103 15.7091 7.64678 15.7091 8.17158C15.7091 8.58051 15.8702 8.95196 16.1922 9.28593C16.5143 9.61307 17.0847 9.95385 17.9034 10.3083C19.3327 10.8331 20.3694 11.4771 21.0136 12.2405C21.6645 13.0038 21.9899 13.975 21.9899 15.1541C21.9899 16.4491 21.584 17.4612 20.772 18.1905C19.9601 18.9197 18.8562 19.2844 17.4605 19.2844C16.5143 19.2844 15.6521 19.0867 14.8737 18.6914C14.0953 18.2961 13.4847 17.7304 13.0418 16.9943C12.6056 16.2582 12.3875 15.3893 12.3875 14.3874H15.3568C15.3568 15.2461 15.5212 15.8698 15.85 16.2582C16.1788 16.6467 16.7157 16.841 17.4605 16.841C18.4939 16.841 19.0106 16.2855 19.0106 15.1746Z" fill="#212B36"/>
</svg>
