<svg width="20" height="20" viewBox="0 0 20 20" fill="none" xmlns="http://www.w3.org/2000/svg">
<path d="M17.7814 8.8819C15.8694 5.46101 13.893 2.23803 11.6226 6.96585C11.5319 7.14342 11.4483 7.36994 11.3628 7.60165C11.1558 8.16301 10.9375 8.75483 10.5785 8.75483V8.74883C10.2196 8.74883 10.0013 8.15705 9.79427 7.59571C9.7088 7.36398 9.62525 7.13743 9.5345 6.95984C7.26405 2.23203 5.28762 5.45501 3.3756 8.8759L3.23869 9.12106C3.14468 9.28926 3.05535 9.44911 2.97521 9.59408L2.98974 9.58471L0 14.8536C1.20379 15.5987 2.76264 15.5705 4.0166 14.9679C4.61307 14.7211 5.09806 14.2933 5.54263 13.7283C5.77839 13.4289 6.26096 12.6 6.99042 11.2418C7.12743 11.5081 7.26145 11.7844 7.39619 12.0622C8.18505 13.6884 8.99834 15.365 10.5785 15.3949V15.4009C12.1587 15.371 12.972 13.6944 13.7609 12.0681C14.7645 9.99927 15.7285 8.0119 18.1818 9.60001C18.0995 9.45112 18.0076 9.28658 17.9107 9.11332L17.9102 9.11235L17.7814 8.8819Z" fill="white"/>
<path d="M20 13.3726C20 14.4928 19.1119 15.4009 18.0165 15.4009C16.9211 15.4009 16.0331 14.4928 16.0331 13.3726C16.0331 12.2525 16.9211 11.3443 18.0165 11.3443C19.1119 11.3443 20 12.2525 20 13.3726Z" fill="white"/>
</svg>
